<svg xmlns="http://www.w3.org/2000/svg" xmlns:xlink="http://www.w3.org/1999/xlink" viewBox="0 0 229 383.45"><defs><style>.cls-1{fill:none;}.cls-2{clip-path:url(#clip-path);}.cls-3{fill:#fff;}</style><clipPath id="clip-path" transform="translate(-397.5 -192.27)"><rect class="cls-1" width="1024" height="768"/></clipPath></defs><title>S_logo</title><g id="Layer_2" data-name="Layer 2"><g id="Layer_1-2" data-name="Layer 1"><g class="cls-2"><path class="cls-3" d="M608.8,213.19c-22.52-9.12-52-19.31-83.12-20.92,30,10.19,56.31,47.2,83.12,103ZM397.5,553.74c21.45,11.26,55.78,19.31,87.95,22C445.77,559.1,422.17,513,397.5,457.2Zm135.15,19.84c55.77-10.72,93.85-49.87,93.85-102.43,0-116.38-181.27-124.42-181.27-211.84,0-26.28,17.16-54.7,42.9-64.89-50.94,9.65-90.63,45.05-90.63,96,0,110.47,180.73,121.74,180.73,211.83,0,30-17.69,59.53-45.58,71.33" transform="translate(-397.5 -192.27)"/></g></g></g></svg>